<?xml version="1.0" encoding="UTF-8" standalone="no"?><!DOCTYPE svg PUBLIC "-//W3C//DTD SVG 1.1//EN" "http://www.w3.org/Graphics/SVG/1.1/DTD/svg11.dtd"><svg width="100%" height="100%" viewBox="0 0 1024 230" version="1.1" xmlns="http://www.w3.org/2000/svg" xmlns:xlink="http://www.w3.org/1999/xlink" xml:space="preserve" xmlns:serif="http://www.serif.com/" style="fill-rule:evenodd;clip-rule:evenodd;stroke-linecap:round;stroke-linejoin:round;stroke-miterlimit:1.5;"><text x="237.802px" y="154.037px" style="font-family:'HiraKakuStd-W8', 'Hiragino Kaku Gothic Std', sans-serif;font-weight:800;font-size:77.564px;">まちカドネットワーク</text><g id="レイヤー1"><path d="M130.233,9.577l-6.53,3.398l-115.069,191.617l-0.096,9.153l4.942,6.678l231.083,-0.129l6.748,-3.508l0.172,-7.158l-113.922,-196.185l-7.328,-3.866Z" style="fill:#ffcb00;stroke:#000;stroke-width:6.13px;"/><g><path d="M154.251,139.338c0,18.636 1.294,37.402 2.071,45.426c-3.365,-7.247 -10.612,-21.095 -16.566,-30.802l-32.614,-52.932c-2.458,-3.883 -4.659,-6.213 -10.483,-6.213c-5.047,0 -8.153,2.977 -8.153,7.766l0,89.299c0,3.495 2.588,5.306 6.212,5.306c3.495,0 6.083,-1.811 6.083,-5.306l-0,-39.732c-0,-19.024 -1.035,-37.014 -1.812,-45.297c2.977,6.471 9.448,19.155 14.624,27.437l34.297,55.522c3.235,5.176 5.306,7.376 10.871,7.376c5.177,0 7.765,-3.106 7.765,-8.153l0,-59.141l-4.692,-30.204c-0.203,-3.884 -4.175,-6.706 -6.789,-6.471c-0.945,0.085 -2.07,0.421 -2.87,1.468c-1.207,1.58 -2.193,4.21 -3.102,6.757l5.158,37.894Z" style="fill-rule:nonzero;"/><path d="M155.065,93.219c-1.259,0.069 -2.123,0.687 -2.87,1.468c-0.218,-0.146 -2.346,4.076 -3.438,7.147c-1.259,3.543 -9.362,22.38 -9.343,22.567c-0.877,1.988 -0.375,3.862 0.712,4.914c1.437,1.39 2.861,1.09 3.434,1.163c10.026,-1.898 19.731,-3.749 29.782,-5.864c1.502,-0.504 2.862,-1.68 3.1,-3.818c-0.089,-1.254 -0.57,-2.471 -1.875,-3.61c-1.18,-0.835 -3.178,-0.775 -5.671,-0.174l-19.015,3.785l9.235,-22.213c0.287,-0.899 0.178,-2.529 -0.62,-4.256c-0.946,-0.711 -2.003,-1.231 -3.431,-1.109" style="stroke:#ff000f;stroke-opacity:0;stroke-width:25px;"/></g><g transform="matrix(0.515597,-0.856831,0.856831,0.515597,-154.078,-9.22981)"><text x="-47.91px" y="244.043px" style="font-family:'HiraMaruPro-W4', 'Hiragino Maru Gothic Pro', sans-serif;font-size:13.614px;">M<tspan x="-35.602px -28.482px -21.62px -14.119px -11.614px -4.997px 2.123px 9.951px 17.48px 21.333px 31.258px 38.392px 43.198px 53.504px 61.033px 66.233px " y="244.043px 244.043px 244.043px 244.043px 244.043px 244.043px 244.043px 244.043px 244.043px 244.043px 244.043px 244.043px 244.043px 244.043px 244.043px 244.043px ">achikado Network</tspan></text></g></g></svg>